<?xml version="1.0" encoding="UTF-8"?>
<svg id="Layer_1" data-name="Layer 1" xmlns="http://www.w3.org/2000/svg" viewBox="0 0 379.94 61.44">
  <defs>
    <style>
      .cls-1 {
        fill: #fff;
      }
    </style>
  </defs>
  <g>
    <path class="cls-1" d="m91.48,40.68c1.32.9,2.74,1.67,4.26,2.31s3.16,1.14,4.92,1.49c.42.08.64.29.64.62,0,.45-.32.68-.94.68-1.44,0-3.46-.63-6.06-1.89-2.16-1.06-4.64-2.69-7.43-4.89v.84l.02,3.5v1.99h-12.52v-.93l.04-6.7.06-8.02-.04-12.42h8.26c3.7,0,6.49.1,8.38.31s3.5.59,4.83,1.15c2.16.9,3.88,2.39,5.14,4.46,1.16,1.92,1.75,3.93,1.75,6.05,0,2.25-.65,4.37-1.95,6.35-2.09,3.19-5.21,4.89-9.35,5.1Zm-1.95-1.27l.99.02c2.82,0,5.2-.79,7.15-2.36,1.23-.99,2.18-2.22,2.83-3.7.62-1.36.92-2.74.92-4.15,0-2.4-.78-4.54-2.34-6.44-1.19-1.47-2.68-2.5-4.48-3.11-1.79-.6-4.32-.93-7.58-.97l-.19,13.78v3.72l.02.97c.84.8,1.73,1.55,2.67,2.24Z"/>
    <path class="cls-1" d="m120.32,31.63v-2.51c-.01-1.74-.04-2.81-.08-3.21s-.17-.75-.37-1.07c-.49-.77-1.65-1.15-3.46-1.15-2.8,0-4.96.88-6.49,2.63-.62.71-1.14,1.07-1.56,1.07-.32,0-.59-.11-.82-.33-.23-.22-.35-.47-.35-.76,0-.86,1.02-1.75,3.06-2.67,1.95-.88,4.46-1.32,7.55-1.32,5.07,0,8.65.77,10.73,2.3.9.67,1.49,1.43,1.77,2.26s.41,2.31.41,4.42v8.16c-.05,1.51-.01,2.64.13,3.4s.47,1.58.98,2.46h-11.52v-2.16c-1.26.86-2.51,1.51-3.75,1.95-1.24.44-2.46.66-3.67.66-2.04,0-3.86-.6-5.45-1.79-2.07-1.56-3.11-3.59-3.11-6.09,0-2.21.84-3.99,2.51-5.35,1.95-1.6,4.37-2.41,7.25-2.41,1.18,0,2.22.11,3.13.32s1.94.6,3.11,1.16Zm0,1.48c-1.73-.86-3.06-1.3-4.01-1.3-.8,0-1.32.32-1.56.95-.14.34-.21,1.34-.21,2.98v4.91c.01,1.08.05,1.74.1,1.97.14.63.6.95,1.4.95.63,0,1.33-.19,2.11-.57.77-.38,1.48-.87,2.13-1.49l.04-8.41Z"/>
    <path class="cls-1" d="m150.84,34.9c3.24-5.67,5.19-9.35,5.87-11.04.34-.8.6-1.31.77-1.53s.39-.33.65-.33c.27,0,.52.08.74.24s.33.33.33.52c0,.22-.15.58-.45,1.09l-11.98,21.53-.64,1.17-5.47-8.62-1.81-2.86-1.89-2.9-1.63-2.57-4.63-6.75h12.79l4.98,8.25,2.39,3.78Z"/>
    <path class="cls-1" d="m167.43,34.76v6.37c0,1.23.08,2.02.23,2.34.29.63.97.95,2.04.95,1.59,0,3.16-.44,4.72-1.31,1.56-.87,2.9-2.07,4.04-3.61.37-.51.64-.83.8-.97s.34-.21.53-.21c.23,0,.42.09.58.26s.23.39.23.65c0,.58-.46,1.35-1.38,2.32-1.21,1.25-2.7,2.26-4.49,3.04-1.79.78-3.53,1.17-5.23,1.17-2.92,0-5.5-.98-7.73-2.94-1.3-1.15-2.3-2.57-3-4.26-.62-1.48-.93-2.96-.93-4.44s.27-2.86.82-4.29,1.3-2.67,2.26-3.71c1.11-1.22,2.43-2.17,3.95-2.84,1.49-.66,3.06-.99,4.69-.99,2.54,0,4.83.75,6.89,2.24,3.21,2.33,4.8,5.71,4.77,10.14h-4.79l-6.17.02-2.82.04Zm5.26-1.36v-5.99c-.03-1.29-.05-2.06-.08-2.31-.03-.25-.12-.49-.29-.71-.38-.53-1.17-.8-2.34-.8s-1.96.31-2.26.92c-.19.37-.29,1.33-.29,2.89v5.99l2.51.08,2.76-.08Z"/>
    <path class="cls-1" d="m194.97,22.87v2.86c1.6-1.14,3.17-1.99,4.71-2.56s3.03-.85,4.48-.85c1.95,0,3.59.45,4.94,1.34,1.01.67,1.7,1.5,2.05,2.5s.52,2.62.52,4.86l-.04,9.52.06,4.79h-10.45l.07-5.72.05-4.2-.02-6.33c-.01-1.47-.03-2.34-.05-2.62s-.09-.53-.2-.75c-.22-.44-.69-.66-1.42-.66-.67,0-1.4.19-2.18.58s-1.62.96-2.53,1.73l-.02.84-.04,5.78-.04,4.42.06,6.05.02.88h-10.51l.06-8.06.06-5.33-.06-4.61-.06-4.46h10.53Z"/>
    <path class="cls-1" d="m243.86,40.68c1.32.9,2.74,1.67,4.26,2.31s3.16,1.14,4.92,1.49c.42.08.64.29.64.62,0,.45-.31.68-.94.68-1.44,0-3.46-.63-6.06-1.89-2.16-1.06-4.64-2.69-7.43-4.89v.84l.02,3.5v1.99h-12.52v-.93l.04-6.7.06-8.02-.04-12.42h8.26c3.7,0,6.49.1,8.38.31s3.5.59,4.83,1.15c2.16.9,3.88,2.39,5.14,4.46,1.16,1.92,1.75,3.93,1.75,6.05,0,2.25-.65,4.37-1.95,6.35-2.09,3.19-5.21,4.89-9.35,5.1Zm-1.95-1.27l.99.02c2.82,0,5.2-.79,7.15-2.36,1.23-.99,2.18-2.22,2.83-3.7.62-1.36.92-2.74.92-4.15,0-2.4-.78-4.54-2.34-6.44-1.19-1.47-2.68-2.5-4.48-3.11s-4.32-.93-7.58-.97l-.19,13.78v3.72l.02.97c.84.8,1.73,1.55,2.67,2.24Z"/>
    <path class="cls-1" d="m266.71,34.76v6.37c0,1.23.08,2.02.23,2.34.29.63.97.95,2.04.95,1.59,0,3.16-.44,4.72-1.31s2.9-2.07,4.04-3.61c.37-.51.64-.83.8-.97s.34-.21.53-.21c.23,0,.42.09.58.26s.23.39.23.65c0,.58-.46,1.35-1.38,2.32-1.21,1.25-2.7,2.26-4.49,3.04-1.79.78-3.53,1.17-5.23,1.17-2.92,0-5.5-.98-7.73-2.94-1.3-1.15-2.3-2.57-3-4.26-.62-1.48-.93-2.96-.93-4.44s.27-2.86.82-4.29,1.3-2.67,2.26-3.71c1.11-1.22,2.43-2.17,3.95-2.84,1.49-.66,3.06-.99,4.69-.99,2.54,0,4.83.75,6.89,2.24,3.21,2.33,4.8,5.71,4.77,10.14h-4.79l-6.17.02-2.82.04Zm5.26-1.36v-5.99c-.03-1.29-.05-2.06-.08-2.31-.03-.25-.12-.49-.29-.71-.38-.53-1.17-.8-2.34-.8s-1.96.31-2.26.92c-.19.37-.29,1.33-.29,2.89v5.99l2.51.08,2.76-.08Z"/>
    <path class="cls-1" d="m283.72,22.87h10.51l-.06,2.69c1.38-1.19,2.65-2.03,3.8-2.52s2.42-.73,3.8-.73c2.84,0,5.14,1.06,6.91,3.17,1.59,1.89,2.39,4.3,2.39,7.22,0,3.11-.91,5.67-2.74,7.67-1.69,1.85-3.79,2.78-6.31,2.78-1.33,0-2.65-.28-3.97-.83s-2.63-1.39-3.93-2.5l.02.76.02,2.69.04,2.24.02.76h-10.51l.02-5.86.04-5.45-.06-11.37v-.72Zm10.45,4.54v10.73c1,.93,1.9,1.63,2.69,2.11s1.49.71,2.08.71c.55,0,.87-.27.97-.8.03-.18.05-1.1.06-2.78v-10.06c0-1.19-.02-1.91-.06-2.14-.1-.58-.38-.86-.86-.86-.62,0-1.36.28-2.24.83s-1.75,1.31-2.63,2.25Z"/>
    <path class="cls-1" d="m324.73,22.32c2.21,0,4.3.61,6.27,1.83,1.82,1.12,3.21,2.66,4.17,4.61.85,1.71,1.27,3.53,1.27,5.45,0,1.32-.25,2.64-.75,3.97-.5,1.33-1.18,2.51-2.05,3.54-1.21,1.41-2.68,2.47-4.42,3.19-1.43.59-2.91.88-4.46.88-2.59,0-4.92-.77-6.99-2.3-1.62-1.18-2.84-2.69-3.68-4.54-.7-1.56-1.05-3.21-1.05-4.96,0-3.4,1.23-6.22,3.7-8.47,2.32-2.08,4.98-3.15,7.98-3.19Zm-.6,1.32l-.06,20.75c.42.03.72.04.88.04,1.91,0,3.73-.53,5.47-1.61,1.67-1.04,2.93-2.43,3.76-4.16.66-1.37.99-2.88.99-4.53,0-3.31-1.22-5.99-3.66-8.05-1.97-1.66-4.12-2.49-6.44-2.49-.19,0-.51.01-.95.04Z"/>
    <path class="cls-1" d="m350.21,29.25l-.04,7.9.08,8.18h-10.57l.02-1.13.02-4.2.07-7.55-.1-8.39-.02-1.19h10.55v4.24c1.57-1.67,2.67-2.73,3.28-3.17,1.42-1,2.76-1.5,4.02-1.5.77,0,1.4.16,1.9.49.5.33.75.75.75,1.25,0,.4-.15.73-.45.99s-.68.39-1.13.39c-.29,0-.61-.08-.96-.25-.6-.29-1.1-.43-1.5-.43-.99,0-1.94.34-2.85,1.01-.92.67-1.94,1.79-3.08,3.35Z"/>
    <path class="cls-1" d="m374.45,15.63l-.23,6.64-.02.64c1.19,0,2.28-.05,3.25-.14.16-.01.31-.02.43-.02.6,0,.9.28.9.83,0,.51-.32.77-.95.77-.19,0-.43-.01-.72-.04-1.08-.08-1.86-.12-2.32-.12h-.6l-.02,3.98.07,7.99.05,4.27c0,1,.08,1.7.23,2.1s.41.6.79.6c.5,0,1.03-.29,1.59-.86.55-.58.99-1.28,1.3-2.12.29-.8.63-1.19,1.03-1.19.47,0,.7.26.7.78s-.23,1.17-.7,1.94-1.03,1.45-1.69,2.03c-1.62,1.41-3.72,2.12-6.29,2.12-2.43,0-4.3-.73-5.63-2.2-.69-.74-1.16-1.56-1.42-2.48-.26-.91-.39-2.17-.39-3.79v-1.54l.02-4.33v-7.36c-.19-.01-.33-.02-.41-.02-.14,0-.41.01-.82.04-.34.03-.63.04-.86.04-.67,0-1.01-.26-1.01-.77s.32-.75.97-.75c.3,0,.51,0,.64.02l1.5.1v-2.32c4.06-1.47,7.6-3.08,10.61-4.83Z"/>
  </g>
  <g>
    <path class="cls-1" d="m33.14,32.89c0,11.9-7.42,21.54-16.57,21.54S0,44.78,0,32.89s5.21-13.25,14.36-13.25,18.78,1.36,18.78,13.25Z"/>
    <path class="cls-1" d="m61.85,30.4c0,13.57-5.65,17.95-16.02,17.95s-21.54-4.38-21.54-17.95c0-6.67,14.93-5.79,18.22-10.22,3.41-4.58-4.72-14.36.55-14.36,10.37,0,18.78,11,18.78,24.58Z"/>
    <g>
      <path class="cls-1" d="m31.93,23.43s.03,0,.04,0c-.01,0-.03,0-.04,0Z"/>
      <path class="cls-1" d="m29.4,22.33s.02.01.02.02c0,0-.02-.01-.02-.02Z"/>
      <path class="cls-1" d="m31.68,23.39s.02,0,.04,0c-.01,0-.02,0-.04,0Z"/>
      <path class="cls-1" d="m32.44,23.5s.02,0,.03,0c-.01,0-.02,0-.03,0Z"/>
      <path class="cls-1" d="m32.71,23.51s.03,0,.05,0c-.02,0-.03,0-.05,0Z"/>
      <path class="cls-1" d="m32.2,23.47s.02,0,.02,0c0,0-.02,0-.02,0Z"/>
      <path class="cls-1" d="m29.26,22.23s.01,0,.02.01c0,0-.01,0-.02-.01Z"/>
      <path class="cls-1" d="m31.46,23.33s0,0,.01,0c0,0,0,0-.01,0Z"/>
      <path class="cls-1" d="m30.59,23.03s.02,0,.03.01c-.01,0-.02,0-.03-.01Z"/>
      <path class="cls-1" d="m30.38,22.93s.02.01.03.02c-.01,0-.02-.01-.03-.02Z"/>
      <path class="cls-1" d="m30.03,22.74s.02,0,.03.01c0,0-.02,0-.03-.01Z"/>
      <path class="cls-1" d="m29.69,22.54s.01,0,.02.01c0,0-.01,0-.02-.01Z"/>
      <path class="cls-1" d="m30.21,22.84s0,0,.01,0c0,0,0,0-.01,0Z"/>
      <path class="cls-1" d="m31.22,23.26s.03,0,.04.01c-.01,0-.03,0-.04-.01Z"/>
      <path class="cls-1" d="m30.8,23.12s0,0,0,0c0,0,0,0,0,0Z"/>
      <path class="cls-1" d="m31,23.19s.02,0,.03.01c-.01,0-.02,0-.03-.01Z"/>
      <path class="cls-1" d="m29.55,22.44s.01,0,.02.01c0,0-.01,0-.02-.01Z"/>
      <path class="cls-1" d="m33.27,23.5s.02,0,.03,0c0,0-.02,0-.03,0Z"/>
      <path class="cls-1" d="m29.03,22.04s.01.01.02.02c0,0-.01-.01-.02-.02Z"/>
      <path class="cls-1" d="m29.85,22.64s.02.01.03.02c0,0-.02-.01-.03-.02Z"/>
      <path class="cls-1" d="m28.92,21.94s.01,0,.02.01c0,0-.01,0-.02-.01Z"/>
      <path class="cls-1" d="m28.83,21.87s0,0,0,0c0,0,0,0,0,0Z"/>
      <path class="cls-1" d="m34.17,23.37s.01,0,.02,0c0,0-.01,0-.02,0Z"/>
      <path class="cls-1" d="m29.15,22.14s0,0,.01,0c0,0,0,0-.01,0Z"/>
      <path class="cls-1" d="m33.87,23.43s.03,0,.04,0c-.01,0-.03,0-.04,0Z"/>
      <path class="cls-1" d="m33.03,23.51s-.02,0-.03,0c.01,0,.02,0,.03,0Z"/>
      <path class="cls-1" d="m34.8,23.2s.03-.01.05-.02c-.02,0-.03.01-.05.02Z"/>
      <path class="cls-1" d="m34.47,23.3s.04,0,.05-.01c-.02,0-.04,0-.05.01Z"/>
      <path class="cls-1" d="m33.56,23.48s.03,0,.05,0c-.02,0-.03,0-.05,0Z"/>
      <path class="cls-1" d="m28.84,21.87s.05.05.08.08c-.03-.03-.06-.05-.08-.08Z"/>
      <path class="cls-1" d="m34.52,23.29c.09-.03.18-.05.28-.08-.09.03-.19.06-.28.08Z"/>
      <path class="cls-1" d="m32.48,23.5c.08,0,.16,0,.23.01-.08,0-.16,0-.23-.01Z"/>
      <path class="cls-1" d="m32.22,23.48c.07,0,.15.02.22.02-.07,0-.15-.01-.22-.02Z"/>
      <path class="cls-1" d="m33.03,23.51c.08,0,.16,0,.24-.01-.08,0-.16,0-.24.01Z"/>
      <path class="cls-1" d="m31.48,23.34c.07.02.14.03.21.05-.07-.02-.14-.03-.21-.05Z"/>
      <path class="cls-1" d="m33.3,23.5c.08,0,.17-.01.26-.02-.09.01-.17.02-.26.02Z"/>
      <path class="cls-1" d="m31.72,23.39c.07.01.14.03.21.04-.07-.01-.14-.03-.21-.04Z"/>
      <path class="cls-1" d="m31.97,23.44c.07.01.15.02.22.03-.08,0-.15-.02-.22-.03Z"/>
      <path class="cls-1" d="m34.19,23.37c.09-.02.18-.04.28-.07-.09.03-.19.05-.28.07Z"/>
      <path class="cls-1" d="m33.61,23.47c.09-.01.17-.02.26-.04-.09.01-.17.03-.26.04Z"/>
      <path class="cls-1" d="m33,23.51c-.08,0-.16,0-.24,0,.08,0,.16,0,.24,0Z"/>
      <path class="cls-1" d="m34.85,23.19c.1-.03.2-.07.29-.1-.1.04-.2.07-.29.1Z"/>
      <path class="cls-1" d="m31.26,23.28c.07.02.14.04.2.06-.07-.02-.14-.04-.2-.06Z"/>
      <path class="cls-1" d="m33.91,23.42c.09-.02.18-.03.26-.05-.09.02-.18.04-.26.05Z"/>
      <path class="cls-1" d="m29.56,22.45s.08.06.13.09c-.04-.03-.09-.06-.13-.09Z"/>
      <path class="cls-1" d="m29.42,22.35s.08.06.13.09c-.04-.03-.08-.06-.13-.09Z"/>
      <path class="cls-1" d="m31.03,23.2c.06.02.13.04.19.06-.06-.02-.13-.04-.19-.06Z"/>
      <path class="cls-1" d="m29.28,22.24s.08.06.12.09c-.04-.03-.08-.06-.12-.09Z"/>
      <path class="cls-1" d="m28.93,21.96s.06.05.09.08c-.03-.03-.06-.05-.09-.08Z"/>
      <path class="cls-1" d="m29.16,22.15s.07.06.11.08c-.04-.03-.07-.06-.11-.08Z"/>
      <path class="cls-1" d="m29.05,22.05s.07.06.1.08c-.04-.03-.07-.06-.1-.08Z"/>
      <path class="cls-1" d="m29.71,22.55s.09.06.14.09c-.05-.03-.1-.06-.14-.09Z"/>
      <path class="cls-1" d="m29.88,22.66s.1.06.15.09c-.05-.03-.1-.06-.15-.09Z"/>
      <path class="cls-1" d="m30.62,23.04c.06.03.12.05.18.08-.06-.02-.12-.05-.18-.08Z"/>
      <path class="cls-1" d="m30.8,23.12c.06.02.13.05.19.07-.06-.02-.13-.05-.19-.07Z"/>
      <path class="cls-1" d="m30.42,22.95c.06.03.11.05.17.08-.06-.03-.11-.05-.17-.08Z"/>
      <path class="cls-1" d="m30.05,22.76c.05.03.1.06.15.08-.05-.03-.1-.06-.15-.08Z"/>
      <path class="cls-1" d="m30.22,22.85c.05.03.11.06.17.08-.06-.03-.11-.06-.17-.08Z"/>
      <path class="cls-1" d="m24.81,18.33s.09.06.13.1c-.04-.03-.09-.07-.13-.1Z"/>
      <path class="cls-1" d="m25.34,18.73s.01,0,.02.01c0,0-.01,0-.02-.01Z"/>
      <path class="cls-1" d="m24.38,18.03c.05.04.1.07.16.11-.05-.04-.1-.07-.16-.11Z"/>
      <path class="cls-1" d="m27.01,20.11c.06.05.12.11.18.16-.06-.05-.12-.11-.18-.16Z"/>
      <path class="cls-1" d="m26.17,19.4c.05.04.11.09.16.13-.05-.04-.11-.09-.16-.13Z"/>
      <path class="cls-1" d="m27.43,20.49c.06.05.12.11.18.16-.06-.06-.12-.11-.18-.16Z"/>
      <path class="cls-1" d="m26.59,19.75c.06.05.11.1.17.15-.06-.05-.11-.1-.17-.15Z"/>
      <path class="cls-1" d="m25.76,19.06s.09.07.13.11c-.04-.04-.09-.07-.13-.11Z"/>
      <path class="cls-1" d="m22.41,16.76s.1.06.15.09c-.05-.03-.1-.06-.15-.09Z"/>
      <path class="cls-1" d="m28.6,21.64s0,0,0,0c-.12-.13-.18-.21-.18-.21-.22-.21-.43-.42-.65-.62.28.27.56.55.83.83Z"/>
      <path class="cls-1" d="m28.67,21.71s0,0-.01-.01c0,0,0,0,.01.01Z"/>
      <path class="cls-1" d="m22.79,16.99c.05.03.11.07.16.1-.05-.03-.11-.07-.16-.1Z"/>
      <path class="cls-1" d="m23.98,17.74c.05.04.11.07.16.11-.06-.04-.11-.08-.16-.11Z"/>
      <path class="cls-1" d="m22.02,16.54s.08.05.13.07c-.04-.02-.08-.05-.13-.07Z"/>
      <path class="cls-1" d="m23.58,17.48c.06.04.11.07.17.11-.06-.04-.11-.07-.17-.11Z"/>
      <path class="cls-1" d="m28.74,21.78s0,0,.01.01c0,0,0,0-.01-.01Z"/>
      <path class="cls-1" d="m23.18,17.22c.06.03.11.07.17.1-.06-.04-.11-.07-.17-.1Z"/>
      <path class="cls-1" d="m1.83,42.36c4.74,11.21,15.84,19.08,28.78,19.08,1.11,0,2.21-.06,3.3-.17,0,0-7.56-2.8-2.79-10.67,0,0,4.23-5.84,10.71-.88,0,0,5.08,4.21,1.88,8.86,7.04-3.25,12.67-9.05,15.69-16.21-.02,0-26.52-4.59-57.56,0Z"/>
      <path class="cls-1" d="m27.36,11.34c0,.63.02,1.02.02,1.02,7.56-8.02,12.38,1.22,12.38,1.22,2.7,6.85-4.61,9.5-4.61,9.5-.1.04-.2.07-.29.1-.02,0-.03.01-.05.02-.09.03-.19.06-.28.08-.02,0-.04,0-.05.01-.09.03-.19.05-.28.07,0,0-.01,0-.02,0-.09.02-.18.04-.26.05-.01,0-.03,0-.04,0-.09.01-.17.03-.26.04-.02,0-.03,0-.05,0-.09.01-.17.02-.26.02,0,0-.02,0-.03,0-.08,0-.16,0-.24.01-.01,0-.02,0-.03,0-.08,0-.16,0-.24,0-.02,0-.03,0-.05,0-.08,0-.16,0-.23-.01-.01,0-.02,0-.03,0-.07,0-.15-.01-.22-.02,0,0-.02,0-.02,0-.08,0-.15-.02-.22-.03-.01,0-.03,0-.04,0-.07-.01-.14-.03-.21-.04-.01,0-.02,0-.04,0-.07-.02-.14-.03-.21-.05,0,0,0,0-.01,0-.07-.02-.14-.04-.2-.06-.01,0-.03,0-.04-.01-.06-.02-.13-.04-.19-.06-.01,0-.02,0-.03-.01-.06-.02-.13-.05-.19-.07,0,0,0,0,0,0-.06-.02-.12-.05-.18-.08-.01,0-.02,0-.03-.01-.06-.03-.11-.05-.17-.08-.01,0-.02-.01-.03-.02-.06-.03-.11-.06-.17-.08,0,0,0,0-.01,0-.05-.03-.1-.06-.15-.08,0,0-.02,0-.03-.01-.05-.03-.1-.06-.15-.09,0,0-.02-.01-.03-.02-.05-.03-.1-.06-.14-.09,0,0-.01,0-.02-.01-.04-.03-.09-.06-.13-.09,0,0-.01,0-.02-.01-.04-.03-.08-.06-.13-.09,0,0-.02-.01-.02-.02-.04-.03-.08-.06-.12-.09,0,0-.01,0-.02-.01-.04-.03-.07-.06-.11-.08,0,0,0,0-.01,0-.04-.03-.07-.06-.1-.08,0,0-.01-.01-.02-.02-.03-.03-.06-.05-.09-.08,0,0-.01,0-.02-.01-.03-.03-.06-.05-.08-.08,0,0,0,0,0,0-.03-.03-.05-.05-.08-.07,0,0,0,0-.01-.01-.02-.02-.05-.04-.07-.07,0,0,0,0-.01-.01-.02-.02-.04-.04-.06-.06,0,0,0,0,0,0-.27-.28-.55-.56-.83-.83-.05-.05-.11-.1-.16-.15-.06-.06-.12-.11-.18-.16-.08-.08-.16-.15-.25-.22-.06-.05-.12-.11-.18-.16-.08-.07-.16-.15-.25-.22-.06-.05-.11-.1-.17-.15-.09-.07-.17-.14-.26-.22-.05-.04-.11-.09-.16-.13-.09-.08-.19-.15-.28-.23-.04-.04-.09-.07-.13-.11-.14-.11-.27-.22-.41-.32,0,0-.01,0-.02-.01-.13-.1-.26-.2-.39-.29-.04-.03-.09-.07-.13-.1-.09-.07-.18-.13-.27-.2-.05-.04-.1-.07-.16-.11-.08-.06-.16-.11-.24-.17-.06-.04-.11-.08-.16-.11-.08-.05-.16-.11-.23-.16-.06-.04-.11-.07-.17-.11-.08-.05-.15-.1-.23-.15-.06-.04-.11-.07-.17-.1-.08-.05-.15-.09-.23-.14-.05-.03-.11-.07-.16-.1-.08-.05-.16-.09-.23-.14-.05-.03-.1-.06-.15-.09-.09-.05-.17-.1-.26-.14-.04-.02-.08-.05-.13-.07-.13-.07-.25-.14-.38-.2-6.56-3.46-11.24-1.83-11.24-1.83-6.02,1.79-8.64,7.48-9.77,12.48,6.26-.76,37.72-4.23,61.05.14-1.24-12.65-10.03-23.09-21.8-26.75,0,0,0,0,0,0-11.39-2.45-12.47,7.65-12.53,10.96Z"/>
      <path class="cls-1" d="m27.71,20.75s-.07-.06-.1-.09c.05.05.11.1.16.15-.02-.02-.04-.04-.06-.06Z"/>
      <path class="cls-1" d="m28.75,21.79s.05.05.08.07c-.03-.03-.05-.05-.08-.07Z"/>
      <path class="cls-1" d="m27.19,20.27c.08.07.16.15.25.22-.08-.08-.16-.15-.25-.22Z"/>
      <path class="cls-1" d="m28.6,21.64s.04.04.06.06c-.02-.02-.04-.04-.06-.06Z"/>
      <path class="cls-1" d="m21.65,16.34c.12.07.25.13.38.2-.13-.07-.25-.14-.38-.2Z"/>
      <path class="cls-1" d="m22.95,17.08c.08.05.15.09.23.14-.08-.05-.15-.09-.23-.14Z"/>
      <path class="cls-1" d="m22.56,16.85c.08.05.16.09.23.14-.08-.05-.16-.09-.23-.14Z"/>
      <path class="cls-1" d="m26.76,19.9c.08.07.16.14.25.22-.08-.07-.16-.15-.25-.22Z"/>
      <path class="cls-1" d="m23.35,17.33c.08.05.15.1.23.15-.08-.05-.15-.1-.23-.15Z"/>
      <path class="cls-1" d="m22.15,16.61c.09.05.17.1.26.14-.09-.05-.17-.1-.26-.14Z"/>
      <path class="cls-1" d="m23.74,17.59c.08.05.16.1.23.16-.08-.05-.16-.11-.23-.16Z"/>
      <path class="cls-1" d="m25.89,19.17c.09.08.19.15.28.23-.09-.08-.19-.15-.28-.23Z"/>
      <path class="cls-1" d="m25.35,18.74c.14.1.27.21.41.32-.14-.11-.27-.22-.41-.32Z"/>
      <path class="cls-1" d="m26.33,19.53c.09.07.17.14.26.22-.09-.07-.17-.14-.26-.22Z"/>
      <path class="cls-1" d="m24.54,18.14c.09.06.18.13.27.2-.09-.07-.18-.13-.27-.2Z"/>
      <path class="cls-1" d="m24.14,17.86c.08.06.16.11.24.17-.08-.06-.16-.11-.24-.17Z"/>
      <path class="cls-1" d="m24.95,18.43c.13.1.26.19.39.29-.13-.1-.26-.2-.39-.29Z"/>
      <path class="cls-1" d="m28.74,21.78s-.05-.04-.07-.07c.02.02.04.04.07.07Z"/>
    </g>
  </g>
</svg>