<?xml version="1.0" encoding="UTF-8"?>
<svg id="Layer_1" data-name="Layer 1" xmlns="http://www.w3.org/2000/svg" viewBox="0 0 164.13 147.59">
  <defs>
    <style>
      .cls-1 {
        fill: #fff;
      }
    </style>
  </defs>
  <path class="cls-1" d="m85.62,56.29s.07.01.1.02c-.03,0-.07-.01-.1-.02Z"/>
  <path class="cls-1" d="m79.53,53.65s.04.03.06.04c-.02-.01-.04-.03-.06-.04Z"/>
  <path class="cls-1" d="m85.02,56.18s.06.01.09.02c-.03,0-.06-.01-.09-.02Z"/>
  <path class="cls-1" d="m86.85,56.45s.05,0,.08,0c-.03,0-.05,0-.08,0Z"/>
  <path class="cls-1" d="m87.49,56.48s.08,0,.11,0c-.04,0-.08,0-.11,0Z"/>
  <path class="cls-1" d="m86.26,56.39s.04,0,.06,0c-.02,0-.04,0-.06,0Z"/>
  <path class="cls-1" d="m79.21,53.41s.03.02.04.03c-.01-.01-.03-.02-.04-.03Z"/>
  <path class="cls-1" d="m84.5,56.05s.02,0,.03,0c0,0-.02,0-.03,0Z"/>
  <path class="cls-1" d="m82.39,55.31s.05.02.08.03c-.03-.01-.05-.02-.08-.03Z"/>
  <path class="cls-1" d="m81.9,55.09s.05.03.08.04c-.03-.01-.05-.03-.08-.04Z"/>
  <path class="cls-1" d="m81.04,54.63s.04.02.06.03c-.02-.01-.04-.02-.06-.03Z"/>
  <path class="cls-1" d="m80.24,54.14s.03.02.04.03c-.01,0-.03-.02-.04-.03Z"/>
  <path class="cls-1" d="m81.47,54.87s.02.01.03.02c0,0-.02-.01-.03-.02Z"/>
  <path class="cls-1" d="m83.92,55.88s.06.02.09.03c-.03,0-.06-.02-.09-.03Z"/>
  <path class="cls-1" d="m82.91,55.53s0,0,0,0c0,0,0,0,0,0Z"/>
  <path class="cls-1" d="m83.37,55.7s.06.02.08.03c-.03,0-.06-.02-.08-.03Z"/>
  <path class="cls-1" d="m79.89,53.91s.03.02.04.03c-.01,0-.03-.02-.04-.03Z"/>
  <path class="cls-1" d="m88.84,56.46s.05,0,.07,0c-.02,0-.05,0-.07,0Z"/>
  <path class="cls-1" d="m78.64,52.94s.03.03.05.04c-.02-.01-.03-.03-.05-.04Z"/>
  <path class="cls-1" d="m80.62,54.38s.05.03.07.04c-.02-.01-.05-.03-.07-.04Z"/>
  <path class="cls-1" d="m78.38,52.72s.02.02.04.03c-.01-.01-.02-.02-.04-.03Z"/>
  <path class="cls-1" d="m78.17,52.53s0,0,0,0c0,0,0,0,0,0Z"/>
  <path class="cls-1" d="m91.01,56.15s.03,0,.04,0c-.01,0-.03,0-.04,0Z"/>
  <path class="cls-1" d="m78.93,53.18s.02.01.03.02c0,0-.02-.01-.03-.02Z"/>
  <path class="cls-1" d="m90.27,56.29s.07-.01.1-.02c-.03,0-.07.01-.1.02Z"/>
  <path class="cls-1" d="m88.27,56.48s-.05,0-.08,0c.03,0,.05,0,.08,0Z"/>
  <path class="cls-1" d="m92.51,55.74s.08-.03.12-.04c-.04.01-.08.03-.12.04Z"/>
  <path class="cls-1" d="m91.72,55.97s.09-.02.13-.03c-.04.01-.09.02-.13.03Z"/>
  <path class="cls-1" d="m89.53,56.39s.08,0,.12-.01c-.04,0-.08,0-.12.01Z"/>
  <path class="cls-1" d="m78.18,52.53c.06.06.13.12.2.18-.07-.06-.14-.12-.2-.18Z"/>
  <path class="cls-1" d="m91.85,55.94c.22-.06.44-.13.66-.2-.22.07-.44.14-.66.2Z"/>
  <path class="cls-1" d="m86.93,56.45c.19.01.37.02.56.03-.19,0-.38-.01-.56-.03Z"/>
  <path class="cls-1" d="m86.32,56.4c.17.02.35.04.53.05-.18-.01-.36-.03-.53-.05Z"/>
  <path class="cls-1" d="m88.27,56.48c.19,0,.38-.01.58-.03-.19.01-.39.02-.58.03Z"/>
  <path class="cls-1" d="m84.53,56.06c.16.04.33.08.49.12-.17-.04-.33-.08-.49-.12Z"/>
  <path class="cls-1" d="m88.91,56.45c.2-.01.41-.04.61-.06-.21.02-.41.04-.61.06Z"/>
  <path class="cls-1" d="m85.11,56.2c.17.04.34.07.51.1-.17-.03-.34-.06-.51-.1Z"/>
  <path class="cls-1" d="m85.72,56.31c.18.03.36.06.54.08-.18-.02-.36-.05-.54-.08Z"/>
  <path class="cls-1" d="m91.05,56.14c.22-.05.44-.11.67-.17-.22.06-.45.12-.67.17Z"/>
  <path class="cls-1" d="m89.65,56.38c.21-.03.41-.06.62-.09-.21.04-.42.07-.62.09Z"/>
  <path class="cls-1" d="m88.19,56.49c-.2,0-.39,0-.58,0,.19,0,.38,0,.58,0Z"/>
  <path class="cls-1" d="m92.63,55.7c.23-.08.47-.16.71-.25-.24.09-.47.17-.71.25Z"/>
  <path class="cls-1" d="m84.01,55.91c.16.05.33.1.49.14-.17-.04-.33-.09-.49-.14Z"/>
  <path class="cls-1" d="m90.37,56.27c.21-.04.42-.08.63-.12-.21.05-.42.09-.63.12Z"/>
  <path class="cls-1" d="m79.93,53.93c.1.07.2.14.31.21-.11-.07-.21-.14-.31-.21Z"/>
  <path class="cls-1" d="m79.59,53.69c.1.07.2.14.3.22-.1-.07-.2-.14-.3-.22Z"/>
  <path class="cls-1" d="m83.45,55.73c.15.05.3.1.46.15-.16-.05-.31-.1-.46-.15Z"/>
  <path class="cls-1" d="m79.25,53.44c.09.07.18.14.28.21-.1-.07-.19-.14-.28-.21Z"/>
  <path class="cls-1" d="m78.42,52.75c.07.06.14.13.22.19-.08-.07-.15-.13-.22-.19Z"/>
  <path class="cls-1" d="m78.96,53.2c.08.07.17.13.25.2-.09-.07-.17-.13-.25-.2Z"/>
  <path class="cls-1" d="m78.69,52.98c.08.07.16.13.24.2-.08-.07-.17-.14-.24-.2Z"/>
  <path class="cls-1" d="m80.28,54.17c.11.07.22.14.34.21-.12-.07-.23-.14-.34-.21Z"/>
  <path class="cls-1" d="m80.69,54.42c.12.07.23.14.36.21-.12-.07-.24-.14-.36-.21Z"/>
  <path class="cls-1" d="m82.46,55.35c.14.06.29.12.44.18-.15-.06-.3-.12-.44-.18Z"/>
  <path class="cls-1" d="m82.91,55.53c.15.06.3.12.46.17-.16-.06-.31-.11-.46-.17Z"/>
  <path class="cls-1" d="m81.98,55.12c.13.06.27.13.41.19-.14-.06-.28-.12-.41-.19Z"/>
  <path class="cls-1" d="m81.1,54.67c.12.07.24.14.37.2-.13-.07-.25-.13-.37-.2Z"/>
  <path class="cls-1" d="m81.5,54.88c.13.07.26.14.4.2-.14-.07-.27-.13-.4-.2Z"/>
  <path class="cls-1" d="m68.52,44.04c.11.08.21.16.32.24-.11-.08-.22-.16-.32-.24Z"/>
  <path class="cls-1" d="m69.77,44.98s.03.02.04.03c-.01-.01-.03-.02-.04-.03Z"/>
  <path class="cls-1" d="m67.49,43.3c.13.09.25.18.38.27-.13-.09-.25-.18-.38-.27Z"/>
  <path class="cls-1" d="m73.8,48.32c.14.13.28.25.43.38-.14-.13-.28-.26-.43-.38Z"/>
  <path class="cls-1" d="m71.79,46.6c.13.11.26.22.39.32-.13-.11-.26-.22-.39-.32Z"/>
  <path class="cls-1" d="m74.81,49.23c.14.13.29.26.43.4-.14-.13-.29-.27-.43-.4Z"/>
  <path class="cls-1" d="m72.79,47.44c.14.12.27.24.41.36-.14-.12-.28-.24-.41-.36Z"/>
  <path class="cls-1" d="m70.8,45.79c.11.08.21.17.32.26-.11-.09-.21-.17-.32-.26Z"/>
  <path class="cls-1" d="m62.74,40.26c.12.07.24.14.36.21-.12-.07-.24-.14-.36-.21Z"/>
  <path class="cls-1" d="m77.63,51.99s0,0,0,0c-.29-.3-.44-.49-.44-.49-.52-.52-1.04-1.01-1.56-1.5.68.65,1.35,1.31,2,1.99Z"/>
  <path class="cls-1" d="m77.8,52.16s-.02-.02-.03-.03c0,0,.02.02.03.03Z"/>
  <path class="cls-1" d="m63.66,40.8c.13.08.26.16.39.24-.13-.08-.26-.16-.39-.24Z"/>
  <path class="cls-1" d="m66.51,42.62c.13.09.26.18.4.27-.13-.09-.26-.18-.4-.27Z"/>
  <path class="cls-1" d="m61.82,39.74c.1.06.2.11.3.17-.1-.06-.2-.11-.3-.17Z"/>
  <path class="cls-1" d="m65.55,41.98c.13.09.27.17.4.26-.13-.09-.27-.18-.4-.26Z"/>
  <path class="cls-1" d="m77.96,52.32s.02.02.03.03c-.01-.01-.02-.02-.03-.03Z"/>
  <path class="cls-1" d="m64.6,41.38c.13.08.26.17.4.25-.13-.08-.27-.17-.4-.25Z"/>
  <path class="cls-1" d="m13.31,101.76c11.39,26.93,38.05,45.84,69.13,45.84,2.68,0,5.32-.14,7.92-.41,0,0-18.16-6.72-6.71-25.64,0,0,10.16-14.03,25.72-2.12,0,0,12.21,10.11,4.51,21.29,16.91-7.82,30.43-21.74,37.7-38.95-.06-.01-63.71-11.03-138.26,0Z"/>
  <path class="cls-1" d="m74.64,27.25c-.02,1.53.04,2.45.04,2.45,18.16-19.28,29.74,2.92,29.74,2.92,6.49,16.44-11.08,22.82-11.08,22.82-.24.09-.47.17-.71.25-.04.01-.08.03-.12.04-.22.07-.44.14-.66.2-.04.01-.09.02-.13.03-.22.06-.45.12-.67.17-.01,0-.03,0-.04,0-.21.05-.42.09-.63.12-.03,0-.07.01-.1.02-.21.04-.42.07-.62.09-.04,0-.08,0-.12.01-.21.02-.41.04-.61.06-.02,0-.05,0-.07,0-.19.01-.39.02-.58.03-.03,0-.05,0-.08,0-.2,0-.39,0-.58,0-.04,0-.08,0-.11,0-.19,0-.38-.01-.56-.03-.03,0-.05,0-.08,0-.18-.01-.36-.03-.53-.05-.02,0-.04,0-.06,0-.18-.02-.36-.05-.54-.08-.03,0-.07-.01-.1-.02-.17-.03-.34-.06-.51-.1-.03,0-.06-.01-.09-.02-.17-.04-.33-.08-.49-.12,0,0-.02,0-.03,0-.17-.04-.33-.09-.49-.14-.03,0-.06-.02-.09-.03-.16-.05-.31-.1-.46-.15-.03,0-.06-.02-.08-.03-.16-.06-.31-.11-.46-.17,0,0,0,0,0,0-.15-.06-.3-.12-.44-.18-.03-.01-.05-.02-.08-.03-.14-.06-.28-.12-.41-.19-.03-.01-.05-.03-.08-.04-.14-.07-.27-.13-.4-.2,0,0-.02-.01-.03-.02-.13-.07-.25-.13-.37-.2-.02-.01-.04-.02-.06-.03-.12-.07-.24-.14-.36-.21-.02-.01-.05-.03-.07-.04-.12-.07-.23-.14-.34-.21-.01,0-.03-.02-.04-.03-.11-.07-.21-.14-.31-.21-.01,0-.03-.02-.04-.03-.1-.07-.2-.14-.3-.22-.02-.01-.04-.03-.06-.04-.1-.07-.19-.14-.28-.21-.01-.01-.03-.02-.04-.03-.09-.07-.17-.13-.25-.2,0,0-.02-.01-.03-.02-.08-.07-.17-.14-.24-.2-.02-.01-.03-.03-.05-.04-.08-.07-.15-.13-.22-.19-.01-.01-.02-.02-.04-.03-.07-.06-.14-.12-.2-.18,0,0,0,0,0,0-.07-.06-.13-.12-.19-.18-.01-.01-.02-.02-.03-.03-.06-.05-.11-.11-.16-.16,0,0-.02-.02-.03-.03-.05-.05-.1-.1-.14-.14,0,0,0,0,0,0-.65-.68-1.31-1.34-2-1.99-.13-.12-.26-.25-.39-.37-.14-.13-.29-.27-.43-.4-.2-.18-.39-.36-.59-.54-.14-.13-.28-.26-.43-.38-.2-.18-.4-.35-.59-.52-.14-.12-.28-.24-.41-.36-.21-.18-.41-.35-.61-.52-.13-.11-.26-.22-.39-.32-.22-.19-.45-.37-.67-.55-.11-.09-.21-.17-.32-.26-.33-.26-.66-.52-.98-.77-.01-.01-.03-.02-.04-.03-.31-.24-.62-.48-.94-.71-.11-.08-.22-.16-.32-.24-.22-.16-.43-.32-.65-.47-.13-.09-.25-.18-.38-.27-.2-.14-.39-.28-.59-.41-.13-.09-.26-.18-.4-.27-.19-.13-.37-.25-.56-.38-.13-.09-.27-.18-.4-.26-.18-.12-.37-.24-.55-.35-.13-.08-.27-.17-.4-.25-.18-.12-.37-.23-.55-.34-.13-.08-.26-.16-.39-.24-.19-.11-.38-.22-.56-.33-.12-.07-.24-.14-.36-.21-.21-.12-.41-.23-.61-.35-.1-.06-.2-.11-.3-.17-.3-.17-.6-.33-.9-.49-15.75-8.3-27.01-4.4-27.01-4.4-14.46,4.29-20.75,17.96-23.46,29.97,15.04-1.83,90.62-10.15,146.66.34-2.98-30.39-24.08-55.46-52.36-64.25,0,0,0,0-.01,0-27.35-5.88-29.96,18.38-30.09,26.34Z"/>
  <path class="cls-1" d="m75.48,49.85c-.08-.07-.16-.15-.24-.22.13.12.26.24.39.37-.05-.05-.1-.1-.15-.14Z"/>
  <path class="cls-1" d="m77.99,52.35c.06.06.12.12.19.18-.07-.06-.13-.12-.19-.18Z"/>
  <path class="cls-1" d="m74.22,48.7c.2.18.39.36.59.54-.2-.18-.39-.36-.59-.54Z"/>
  <path class="cls-1" d="m77.63,51.99s.09.09.14.14c-.05-.05-.1-.1-.14-.14Z"/>
  <path class="cls-1" d="m60.92,39.25c.3.16.6.32.9.49-.3-.17-.6-.33-.9-.49Z"/>
  <path class="cls-1" d="m64.05,41.04c.18.11.37.22.55.34-.18-.12-.37-.23-.55-.34Z"/>
  <path class="cls-1" d="m63.1,40.47c.19.11.38.22.56.33-.19-.11-.38-.22-.56-.33Z"/>
  <path class="cls-1" d="m73.2,47.79c.2.17.4.34.59.52-.2-.18-.4-.35-.59-.52Z"/>
  <path class="cls-1" d="m65,41.63c.18.12.37.23.55.35-.18-.12-.37-.24-.55-.35Z"/>
  <path class="cls-1" d="m62.12,39.91c.2.11.41.23.61.35-.21-.12-.41-.23-.61-.35Z"/>
  <path class="cls-1" d="m65.95,42.25c.19.12.37.25.56.38-.19-.13-.37-.25-.56-.38Z"/>
  <path class="cls-1" d="m71.12,46.05c.22.18.45.36.67.55-.22-.19-.45-.37-.67-.55Z"/>
  <path class="cls-1" d="m69.82,45.02c.33.25.65.51.98.77-.33-.26-.66-.52-.98-.77Z"/>
  <path class="cls-1" d="m72.18,46.92c.2.17.41.34.61.52-.21-.18-.41-.35-.61-.52Z"/>
  <path class="cls-1" d="m67.87,43.57c.22.15.43.31.65.47-.22-.16-.43-.32-.65-.47Z"/>
  <path class="cls-1" d="m66.9,42.89c.19.13.39.27.59.41-.2-.14-.39-.28-.59-.41Z"/>
  <path class="cls-1" d="m68.84,44.28c.31.23.62.47.94.71-.31-.24-.62-.48-.94-.71Z"/>
  <path class="cls-1" d="m77.96,52.32c-.06-.05-.11-.11-.16-.16.05.05.1.1.16.16Z"/>
  <g>
    <path class="cls-1" d="m8.71,87.59c.78.38,1.6.68,2.46.91.87.23,1.78.38,2.74.44.23.01.36.11.38.28.03.24-.12.38-.46.43-.77.1-1.9-.09-3.38-.57-1.24-.4-2.69-1.08-4.36-2.04.02.15.04.3.07.45.09.62.19,1.24.28,1.86.05.35.1.71.15,1.06-2.23.32-4.47.66-6.7,1.02-.03-.16-.05-.33-.08-.49-.18-1.19-.36-2.37-.54-3.56-.21-1.42-.43-2.84-.64-4.26-.36-2.2-.71-4.39-1.07-6.59,1.51-.24,3.03-.47,4.54-.7,2.04-.3,3.58-.47,4.64-.51,1.06-.04,1.97.05,2.74.25,1.26.32,2.3.99,3.14,2,.77.94,1.23,1.97,1.37,3.1.15,1.2-.06,2.37-.62,3.52-.91,1.85-2.47,2.98-4.68,3.4Zm-1.15-.53c.18-.02.36-.04.53-.06,1.52-.21,2.74-.81,3.68-1.79.6-.61,1.02-1.34,1.27-2.17.24-.77.31-1.53.21-2.28-.17-1.28-.74-2.37-1.73-3.26-.76-.69-1.65-1.14-2.68-1.32-1.03-.19-2.44-.16-4.24.07.32,2.45.64,4.89.96,7.34.1.66.19,1.32.29,1.98.03.17.06.34.09.51.51.36,1.05.69,1.61.98Z"/>
    <path class="cls-1" d="m23.72,80.81c-.05-.45-.1-.89-.15-1.34-.11-.93-.19-1.5-.23-1.71-.05-.21-.13-.39-.27-.55-.32-.38-.97-.51-1.97-.4-1.54.18-2.67.79-3.39,1.82-.29.42-.55.65-.79.67-.17.02-.33-.02-.47-.12-.14-.1-.22-.23-.24-.38-.06-.46.44-1.01,1.5-1.63,1.01-.6,2.37-.99,4.06-1.19,2.79-.31,4.8-.11,6.03.6.53.31.9.68,1.09,1.11.19.43.35,1.21.46,2.34.14,1.45.29,2.91.43,4.36.05.81.13,1.41.25,1.81.12.4.34.82.66,1.26-2.06.2-4.13.42-6.19.64-.04-.38-.08-.77-.13-1.15-.63.54-1.26.96-1.9,1.27-.64.31-1.28.5-1.93.58-1.1.13-2.11-.07-3.04-.6-1.21-.7-1.91-1.7-2.08-3.03-.15-1.18.18-2.18,1-3.02.95-.99,2.22-1.57,3.79-1.76.64-.08,1.22-.08,1.73-.03.51.06,1.09.2,1.76.43Zm.09.79c-.99-.36-1.74-.51-2.26-.45-.43.05-.7.25-.79.6-.05.19-.03.73.07,1.6.1.87.2,1.75.3,2.62.07.58.13.93.18,1.05.11.33.38.47.81.42.34-.04.71-.18,1.1-.43.39-.25.75-.56,1.06-.92-.16-1.5-.32-3-.47-4.49Z"/>
    <path class="cls-1" d="m40.5,81c1.52-3.18,2.46-5.22,2.76-6.15.16-.44.28-.72.36-.85.09-.12.2-.19.34-.2.15-.01.29.02.42.1.13.08.19.17.2.27,0,.12-.06.32-.21.6-1.93,4-3.81,8.01-5.64,12.03-.1.22-.19.44-.29.66-1.11-1.46-2.23-2.91-3.35-4.36-.37-.48-.75-.96-1.12-1.44-.39-.49-.78-.97-1.17-1.46-.34-.43-.68-.86-1.02-1.29-.96-1.12-1.92-2.24-2.89-3.36,2.34-.23,4.69-.45,7.03-.65,1.04,1.39,2.07,2.79,3.1,4.19.49.64.98,1.28,1.46,1.92Z"/>
    <path class="cls-1" d="m49.52,80.29c.07,1.14.14,2.28.21,3.42.04.66.11,1.08.2,1.25.18.33.55.48,1.13.44.86-.05,1.69-.33,2.51-.84.81-.51,1.51-1.2,2.09-2.05.19-.28.32-.46.41-.54.09-.08.18-.12.28-.12.13,0,.23.03.32.12.09.09.13.2.14.34.01.31-.21.74-.69,1.28-.62.7-1.4,1.29-2.34,1.76-.94.47-1.87.73-2.78.79-1.57.09-2.99-.34-4.27-1.31-.74-.57-1.34-1.29-1.78-2.17-.39-.77-.61-1.55-.67-2.34-.05-.76.04-1.54.29-2.33.25-.79.61-1.48,1.1-2.07.57-.7,1.26-1.25,2.07-1.66.8-.41,1.65-.64,2.55-.69,1.4-.08,2.69.25,3.86.99,1.83,1.16,2.79,2.93,2.88,5.31-.87.04-1.74.08-2.61.13-1.12.06-2.24.13-3.36.2-.51.04-1.02.08-1.53.11Zm2.83-.9c-.06-1.07-.12-2.14-.18-3.21-.05-.69-.09-1.1-.11-1.24-.02-.14-.08-.26-.18-.37-.23-.27-.67-.39-1.32-.36-.66.04-1.07.23-1.22.57-.09.2-.11.72-.06,1.56.07,1.07.13,2.14.2,3.21.46-.01.91-.03,1.37-.04.5-.04,1-.09,1.5-.13Z"/>
    <path class="cls-1" d="m64.31,73.2c.02.51.03,1.02.05,1.53.86-.64,1.71-1.12,2.55-1.45.84-.33,1.66-.5,2.46-.52,1.07-.03,1.99.2,2.74.66.57.35.95.79,1.15,1.32.2.53.31,1.4.33,2.61.02,1.7.04,3.41.06,5.11.02.86.05,1.72.07,2.57-1.88.03-3.76.07-5.63.12-.01-1.02-.03-2.05-.04-3.07-.01-.75-.02-1.5-.03-2.25-.03-1.13-.07-2.27-.1-3.4-.03-.79-.05-1.26-.07-1.41-.02-.15-.05-.28-.12-.4-.13-.23-.39-.34-.79-.33-.37.01-.77.13-1.19.34-.42.22-.88.54-1.36.97,0,.15,0,.3,0,.45.03,1.03.05,2.07.08,3.1.02.79.04,1.58.06,2.37.05,1.08.09,2.16.14,3.24,0,.16.02.32.03.47-1.89.06-3.78.14-5.67.22-.05-1.44-.1-2.88-.16-4.33-.03-.95-.06-1.91-.09-2.86-.05-.82-.09-1.65-.14-2.47-.05-.8-.09-1.6-.14-2.39,1.94-.08,3.87-.16,5.81-.22Z"/>
    <path class="cls-1" d="m91.12,82.55c.7.5,1.47.92,2.28,1.29.82.36,1.7.65,2.64.87.23.05.34.16.33.34,0,.24-.18.36-.52.35-.78-.02-1.85-.39-3.25-1.09-1.16-.59-2.48-1.49-3.98-2.69,0,.15,0,.3,0,.45,0,.63,0,1.25-.01,1.88,0,.36,0,.71-.01,1.07-2.25-.03-4.5-.04-6.76-.04,0-.17,0-.33,0-.5,0-1.2.01-2.4.02-3.6.01-1.44.02-2.87.03-4.31,0-2.22-.02-4.45-.02-6.67,1.53,0,3.06,0,4.58.02,2.05.02,3.6.1,4.65.22,1.05.13,1.94.35,2.67.67,1.19.51,2.12,1.34,2.78,2.47.61,1.05.9,2.14.87,3.27-.03,1.21-.42,2.33-1.16,3.38-1.19,1.68-2.9,2.56-5.14,2.63Zm-1.05-.7c.18,0,.36.01.53.02,1.53.02,2.83-.37,3.91-1.19.68-.51,1.21-1.16,1.59-1.95.36-.72.54-1.46.57-2.22.04-1.29-.36-2.45-1.2-3.49-.64-.8-1.45-1.38-2.44-1.72-.99-.34-2.38-.54-4.19-.59-.07,2.47-.13,4.93-.19,7.4,0,.67-.02,1.33-.02,2,0,.17,0,.35,0,.52.45.44.93.85,1.43,1.22Z"/>
    <path class="cls-1" d="m103.64,79.73c-.05,1.14-.09,2.28-.14,3.42-.03.66,0,1.08.07,1.26.14.34.5.53,1.08.55.86.04,1.72-.16,2.58-.58.86-.43,1.62-1.04,2.28-1.83.21-.26.37-.43.46-.5.09-.07.19-.1.3-.09.13,0,.23.06.31.15.08.1.11.21.1.35-.02.31-.29.71-.81,1.21-.69.63-1.52,1.14-2.51,1.51-.99.37-1.93.54-2.85.5-1.57-.07-2.94-.65-4.11-1.74-.68-.64-1.2-1.42-1.55-2.34-.31-.81-.45-1.61-.43-2.4.02-.77.2-1.53.52-2.29.32-.76.76-1.41,1.31-1.95.63-.63,1.38-1.12,2.23-1.45.84-.32,1.71-.46,2.61-.43,1.4.06,2.65.52,3.74,1.38,1.7,1.34,2.47,3.2,2.33,5.57-.87-.05-1.74-.09-2.61-.14-1.12-.05-2.24-.1-3.36-.15-.51-.01-1.02-.03-1.54-.04Zm2.9-.6c.05-1.07.1-2.14.15-3.22.02-.69.02-1.1.01-1.24,0-.14-.06-.27-.14-.39-.2-.3-.62-.46-1.27-.49-.66-.03-1.09.12-1.27.44-.11.19-.19.71-.22,1.55-.04,1.07-.09,2.14-.13,3.22.46.03.91.07,1.37.1.5,0,1,.01,1.51.02Z"/>
    <path class="cls-1" d="m113.27,73.81c1.93.11,3.86.24,5.79.37-.04.48-.09.96-.13,1.44.8-.59,1.54-.99,2.19-1.2.65-.21,1.36-.29,2.12-.23,1.56.12,2.79.79,3.66,2,.79,1.09,1.11,2.41.98,3.97-.14,1.67-.76,2.99-1.83,3.98-.99.91-2.17,1.32-3.53,1.21-.72-.06-1.42-.26-2.11-.61-.69-.35-1.36-.85-2.03-1.49,0,.14-.01.27-.02.41-.03.48-.06.96-.09,1.44-.02.4-.04.8-.06,1.2,0,.14-.01.27-.02.41-1.88-.13-3.77-.25-5.65-.36.06-1.05.13-2.09.19-3.14.06-.97.13-1.95.19-2.92.11-2.03.21-4.07.32-6.1,0-.13.01-.26.02-.39Zm5.59,2.8c-.13,1.92-.26,3.83-.4,5.75.51.54.97.95,1.38,1.23.41.28.78.44,1.1.46.3.02.48-.11.55-.39.02-.09.07-.59.14-1.48.13-1.8.27-3.59.4-5.39.05-.64.07-1.02.05-1.15-.03-.31-.18-.48-.44-.5-.34-.03-.76.09-1.26.36-.5.26-1.01.63-1.53,1.1Z"/>
    <path class="cls-1" d="m135.88,75.3c1.21.12,2.33.57,3.34,1.34.94.71,1.61,1.61,2.02,2.71.36.97.48,1.96.37,2.99-.08.7-.29,1.39-.64,2.07-.35.68-.79,1.27-1.31,1.77-.73.68-1.59,1.16-2.56,1.45-.8.23-1.61.31-2.45.23-1.39-.14-2.6-.67-3.64-1.6-.81-.71-1.4-1.58-1.77-2.61-.3-.87-.42-1.77-.33-2.7.16-1.82.97-3.27,2.43-4.35,1.37-1,2.89-1.43,4.55-1.28Zm-.4.67c-.38,3.7-.76,7.39-1.14,11.09.23.04.38.06.47.07,1.03.1,2.03-.08,3.03-.55.96-.46,1.72-1.13,2.27-2,.44-.69.71-1.48.8-2.36.2-1.76-.31-3.27-1.53-4.52-.99-1-2.12-1.57-3.39-1.7-.11-.01-.28-.02-.52-.03Z"/>
    <path class="cls-1" d="m149.41,80.59c-.19,1.4-.37,2.8-.56,4.2-.17,1.46-.34,2.91-.51,4.37-1.89-.24-3.78-.47-5.67-.69.03-.2.06-.4.08-.6.09-.75.18-1.49.27-2.24.17-1.34.34-2.68.51-4.02.16-1.49.31-2.99.47-4.48.02-.21.04-.43.06-.64,1.93.22,3.86.46,5.79.7-.1.75-.19,1.5-.29,2.26.97-.78,1.65-1.27,2.01-1.46.85-.43,1.62-.6,2.31-.51.42.06.76.19,1,.4.25.21.36.45.32.72-.03.21-.14.38-.32.49-.18.12-.4.16-.65.12-.16-.02-.33-.09-.51-.2-.31-.2-.57-.31-.79-.34-.54-.07-1.08.04-1.63.33-.55.29-1.19.82-1.91,1.57Z"/>
    <path class="cls-1" d="m163.71,75.21c-.22,1.17-.44,2.34-.66,3.51-.02.11-.04.22-.06.34.65.1,1.25.17,1.79.2.09,0,.17.02.24.03.33.05.47.22.43.52-.04.27-.24.38-.58.33-.1-.02-.23-.04-.39-.08-.58-.14-1-.22-1.26-.26-.11-.02-.22-.03-.33-.05-.11.7-.22,1.41-.33,2.11-.2,1.42-.41,2.83-.61,4.25-.11.76-.21,1.52-.32,2.27-.08.53-.1.91-.05,1.13.05.22.17.35.37.38.27.04.57-.07.92-.33.34-.26.63-.6.87-1.02.22-.4.44-.58.65-.55.25.04.35.2.31.47-.04.28-.22.6-.54.97-.31.37-.67.68-1.07.93-.98.61-2.16.82-3.54.61-1.3-.19-2.24-.73-2.85-1.61-.31-.45-.5-.92-.57-1.42-.07-.5-.05-1.19.07-2.05.04-.27.08-.55.12-.82.11-.77.22-1.54.34-2.3.18-1.3.37-2.61.55-3.91-.1-.02-.18-.04-.22-.04-.08-.01-.23-.02-.45-.04-.19-.01-.35-.03-.48-.04-.37-.05-.53-.21-.49-.49.04-.27.23-.37.58-.33.17.02.28.04.35.06.27.06.54.11.81.17.06-.41.12-.82.17-1.24,2.34-.46,4.41-1.03,6.21-1.71Z"/>
  </g>
</svg>