<?xml version="1.0" encoding="UTF-8"?>
<svg id="Layer_1" data-name="Layer 1" xmlns="http://www.w3.org/2000/svg" viewBox="0 0 145.02 132.58">
  <defs>
    <style>
      .cls-1 {
        fill: #73bfad;
      }

      .cls-2 {
        fill: #0a268c;
      }
    </style>
  </defs>
  <path class="cls-1" d="m29.96,32.97s9.95-3.45,23.86,3.89c.26.14.53.28.8.43.09.05.18.1.27.15.18.1.36.2.54.31.11.06.21.12.32.19.17.1.33.19.5.29.11.07.23.14.34.21.16.1.32.2.49.3.12.07.23.15.35.22.16.1.32.21.49.31.12.08.24.15.35.23.16.11.33.22.5.33.12.08.23.16.35.24.17.12.35.24.52.36.11.08.22.16.33.24.19.14.38.28.57.42.1.07.19.14.29.21.27.2.55.41.83.63.01,0,.02.02.04.03.29.22.58.45.87.68.09.07.19.15.28.23.2.16.4.32.59.48.11.09.23.19.34.29.18.15.36.3.54.46.12.1.24.21.36.32.17.15.35.3.52.46.13.11.25.22.38.34.17.16.35.31.52.47.13.12.25.23.38.35.07.07.14.13.21.2.04.04.09.09.13.13.46.43.91.87,1.37,1.32,0,0,.13.17.39.44.04.04.08.08.12.13,0,0,.02.02.03.03.04.04.09.09.14.14,0,0,.02.02.03.03.05.05.11.1.16.16,0,0,0,0,0,0,.06.05.11.11.18.16.01,0,.02.02.03.03.06.06.13.11.19.17.01.01.03.02.04.03.07.06.14.12.22.18,0,0,.02.01.02.02.07.06.15.12.22.18.01,0,.02.02.04.03.08.06.16.12.25.19.02.01.03.03.05.04.09.06.18.13.27.19.01,0,.02.02.04.03.09.06.18.12.27.18.01,0,.02.02.03.02.1.06.2.13.3.19.02.01.04.03.06.04.1.06.21.12.31.18.02.01.04.02.05.03.11.06.22.12.33.18,0,0,.02,0,.02.01.11.06.23.12.35.18.02.01.05.02.07.03.12.06.24.11.36.17.02,0,.04.02.07.03.13.06.26.11.39.16,0,0,0,0,0,0,.13.05.27.1.41.15.02,0,.05.02.07.03.13.05.27.09.41.13.03,0,.05.02.08.02.14.04.29.08.43.12,0,0,.02,0,.03,0,.14.04.29.07.44.1.03,0,.05.01.08.02.15.03.3.06.45.09.03,0,.06.01.09.02.16.03.31.05.47.07.02,0,.03,0,.05,0,.15.02.31.03.47.05.02,0,.05,0,.07,0,.16.01.33.02.5.03.03,0,.07,0,.1,0,.17,0,.34,0,.51,0,.02,0,.05,0,.07,0,.17,0,.34-.01.51-.02.02,0,.04,0,.06,0,.18-.01.36-.03.54-.05.04,0,.07,0,.11-.01.18-.02.36-.05.55-.08.03,0,.06-.01.09-.02.18-.03.37-.07.56-.11.01,0,.02,0,.04,0,.19-.04.39-.09.59-.15.04-.01.08-.02.11-.03.19-.05.39-.11.59-.18.04-.01.07-.02.11-.04.21-.07.42-.14.63-.22,0,0,15.53-5.64,9.79-20.17,0,0-10.24-19.61-26.28-2.58,0,0-.06-.82-.04-2.17.12-7.03,2.42-28.47,26.59-23.27-6.22-1.93-12.84-2.98-19.69-2.98C38.44,0,10.16,26.21,6.87,59.75c.01,0,.83-.11,2.36-.3,2.39-10.61,7.95-22.69,20.73-26.48Z"/>
  <path class="cls-2" d="m11.76,92.08c10.06,23.8,33.62,40.5,61.08,40.5,2.36,0,4.7-.12,7-.37,0,0-16.05-5.94-5.93-22.65,0,0,8.98-12.39,22.73-1.87,0,0,10.79,8.93,3.98,18.81,14.95-6.91,26.88-19.21,33.31-34.42-.05,0-56.29-9.74-122.16,0Z"/>
  <path class="cls-2" d="m65.95,26.25c-.02,1.35.04,2.17.04,2.17,16.04-17.03,26.28,2.58,26.28,2.58,5.73,14.53-9.79,20.17-9.79,20.17-.21.08-.42.15-.63.22-.04.01-.07.02-.11.04-.2.06-.39.12-.59.18-.04.01-.08.02-.11.03-.2.05-.39.1-.59.15-.01,0-.02,0-.04,0-.19.04-.38.08-.56.11-.03,0-.06.01-.09.02-.19.03-.37.06-.55.08-.04,0-.07,0-.11.01-.18.02-.36.04-.54.05-.02,0-.04,0-.06,0-.17.01-.34.02-.51.02-.02,0-.05,0-.07,0-.17,0-.34,0-.51,0-.03,0-.07,0-.1,0-.17,0-.33-.01-.5-.03-.02,0-.05,0-.07,0-.16-.01-.31-.03-.47-.05-.02,0-.03,0-.05,0-.16-.02-.32-.04-.47-.07-.03,0-.06-.01-.09-.02-.15-.03-.3-.06-.45-.09-.03,0-.05-.01-.08-.02-.15-.03-.29-.07-.44-.1,0,0-.02,0-.03,0-.15-.04-.29-.08-.43-.12-.03,0-.05-.02-.08-.02-.14-.04-.27-.09-.41-.13-.02,0-.05-.02-.07-.03-.14-.05-.27-.1-.41-.15,0,0,0,0,0,0-.13-.05-.26-.11-.39-.16-.02,0-.04-.02-.07-.03-.12-.05-.24-.11-.36-.17-.02-.01-.05-.02-.07-.03-.12-.06-.24-.12-.35-.18,0,0-.02,0-.02-.01-.11-.06-.22-.12-.33-.18-.02-.01-.04-.02-.05-.03-.11-.06-.21-.12-.31-.18-.02-.01-.04-.03-.06-.04-.1-.06-.2-.13-.3-.19-.01,0-.02-.02-.03-.02-.09-.06-.18-.12-.27-.18-.01,0-.02-.02-.04-.03-.09-.06-.18-.13-.27-.19-.02-.01-.03-.03-.05-.04-.08-.06-.17-.12-.25-.19-.01,0-.02-.02-.04-.03-.08-.06-.15-.12-.22-.18,0,0-.02-.01-.02-.02-.07-.06-.15-.12-.22-.18-.01-.01-.03-.02-.04-.03-.07-.06-.13-.11-.19-.17-.01,0-.02-.02-.03-.03-.06-.05-.12-.11-.18-.16,0,0,0,0,0,0-.06-.05-.11-.11-.16-.16,0,0-.02-.02-.03-.03-.05-.05-.1-.09-.14-.14,0,0-.02-.02-.03-.03-.04-.04-.09-.09-.12-.13,0,0,0,0,0,0-.57-.6-1.16-1.19-1.76-1.76-.11-.11-.23-.22-.34-.32-.13-.12-.25-.23-.38-.35-.17-.16-.35-.32-.52-.47-.13-.11-.25-.23-.38-.34-.18-.16-.35-.31-.52-.46-.12-.11-.24-.21-.36-.32-.18-.16-.36-.31-.54-.46-.11-.1-.23-.19-.34-.29-.2-.16-.4-.32-.59-.48-.09-.08-.19-.15-.28-.23-.29-.23-.58-.46-.87-.68-.01,0-.02-.02-.04-.03-.28-.21-.55-.42-.83-.63-.1-.07-.19-.14-.29-.21-.19-.14-.38-.28-.57-.42-.11-.08-.22-.16-.33-.24-.17-.12-.35-.24-.52-.36-.12-.08-.23-.16-.35-.24-.17-.11-.33-.22-.5-.33-.12-.08-.24-.16-.35-.23-.16-.11-.32-.21-.49-.31-.12-.07-.23-.15-.35-.22-.16-.1-.32-.2-.49-.3-.11-.07-.23-.14-.34-.21-.17-.1-.33-.2-.5-.29-.11-.06-.21-.13-.32-.19-.18-.1-.36-.21-.54-.31-.09-.05-.18-.1-.27-.15-.27-.15-.53-.29-.8-.43-13.92-7.34-23.86-3.89-23.86-3.89-12.78,3.79-18.33,15.87-20.73,26.48,13.29-1.62,80.07-8.97,129.58.3-2.63-26.85-21.28-49-46.26-56.77,0,0,0,0,0,0-24.17-5.2-26.47,16.24-26.59,23.27Z"/>
  <path class="cls-1" d="m96.63,107.69c-13.74-10.52-22.73,1.87-22.73,1.87-10.12,16.72,5.93,22.65,5.93,22.65,7.35-.77,14.34-2.74,20.78-5.72,6.81-9.88-3.98-18.81-3.98-18.81Z"/>
  <g>
    <path class="cls-2" d="m7.7,79.56c.69.34,1.41.6,2.17.81.76.2,1.57.33,2.43.39.21.01.32.1.34.25.03.21-.11.34-.41.38-.68.09-1.67-.08-2.99-.5-1.09-.36-2.38-.96-3.86-1.8.02.13.04.26.06.4.08.55.17,1.09.25,1.64.05.31.09.62.14.94-1.97.29-3.95.59-5.92.9-.02-.14-.05-.29-.07-.43-.16-1.05-.32-2.1-.48-3.15-.19-1.25-.38-2.51-.57-3.76-.31-1.94-.63-3.88-.94-5.82,1.34-.21,2.68-.42,4.01-.62,1.8-.27,3.17-.41,4.1-.45.93-.03,1.74.04,2.42.22,1.11.28,2.03.87,2.77,1.77.68.83,1.08,1.74,1.21,2.74.14,1.06-.05,2.1-.55,3.11-.81,1.63-2.18,2.63-4.13,3Zm-1.01-.47c.16-.02.31-.04.47-.06,1.34-.19,2.42-.71,3.25-1.58.53-.54.9-1.18,1.13-1.92.21-.68.28-1.35.19-2.01-.15-1.13-.65-2.09-1.53-2.88-.67-.61-1.46-1-2.37-1.17-.91-.16-2.16-.15-3.74.07.28,2.16.57,4.32.85,6.48.08.58.17,1.17.25,1.75.03.15.05.3.08.45.45.32.93.61,1.42.87Z"/>
    <path class="cls-2" d="m20.96,73.57c-.04-.39-.09-.79-.13-1.18-.1-.82-.17-1.32-.21-1.51-.04-.19-.12-.35-.24-.48-.28-.34-.86-.45-1.74-.35-1.36.16-2.36.69-2.99,1.61-.26.37-.49.57-.69.6-.15.02-.29-.02-.42-.11-.13-.09-.2-.2-.21-.34-.05-.41.39-.89,1.33-1.44.89-.53,2.09-.88,3.59-1.05,2.46-.28,4.24-.09,5.32.53.47.27.79.6.96.98.17.38.31,1.07.41,2.07.13,1.29.26,2.57.38,3.86.04.71.12,1.25.22,1.6.1.35.3.72.58,1.11-1.82.18-3.65.37-5.47.57-.04-.34-.07-.68-.11-1.02-.55.47-1.11.85-1.68,1.12-.57.27-1.13.44-1.7.51-.97.11-1.86-.06-2.69-.53-1.07-.61-1.69-1.51-1.84-2.68-.13-1.04.16-1.93.89-2.67.84-.87,1.96-1.39,3.35-1.55.57-.07,1.08-.07,1.52-.02.45.05.97.18,1.56.38Zm.08.7c-.87-.32-1.54-.45-2-.39-.38.04-.62.22-.7.53-.05.17-.03.64.06,1.42.09.77.18,1.54.27,2.32.07.51.12.82.16.92.1.29.34.41.72.37.3-.03.62-.16.97-.38.35-.22.66-.49.93-.82-.14-1.32-.28-2.65-.42-3.97Z"/>
    <path class="cls-2" d="m35.78,73.73c1.35-2.81,2.17-4.62,2.44-5.44.14-.39.25-.64.32-.75.08-.11.18-.17.3-.18.13,0,.26.02.37.09.11.07.17.15.18.24,0,.1-.05.28-.18.53-1.7,3.53-3.36,7.08-4.98,10.63-.09.19-.17.39-.26.58-.98-1.29-1.97-2.57-2.96-3.85-.33-.42-.66-.85-.99-1.27-.34-.43-.69-.86-1.04-1.29-.3-.38-.6-.76-.9-1.14-.85-.99-1.7-1.98-2.55-2.97,2.07-.21,4.14-.4,6.21-.58.92,1.23,1.83,2.46,2.74,3.7.43.57.86,1.13,1.29,1.7Z"/>
    <path class="cls-2" d="m43.75,73.11c.06,1.01.12,2.01.19,3.02.04.58.09.95.18,1.1.16.29.49.42,1,.39.76-.04,1.5-.29,2.22-.75.72-.45,1.33-1.06,1.84-1.81.17-.25.29-.41.36-.48.08-.07.16-.11.25-.11.11,0,.21.03.28.11.08.08.12.18.12.3.01.27-.19.65-.61,1.13-.55.62-1.24,1.14-2.07,1.55-.83.42-1.65.65-2.46.7-1.39.08-2.64-.3-3.77-1.16-.66-.5-1.18-1.14-1.57-1.92-.34-.68-.54-1.37-.59-2.07-.05-.67.04-1.36.25-2.06.22-.7.54-1.31.97-1.83.5-.61,1.11-1.1,1.83-1.47.71-.36,1.46-.56,2.25-.61,1.24-.07,2.38.22,3.41.88,1.62,1.02,2.46,2.59,2.55,4.69-.77.04-1.54.07-2.31.11-.99.05-1.98.11-2.97.17-.45.03-.9.07-1.35.1Zm2.5-.79c-.05-.95-.11-1.89-.16-2.84-.05-.61-.08-.97-.1-1.09-.02-.12-.07-.23-.16-.33-.2-.24-.59-.35-1.16-.31-.59.03-.95.2-1.07.5-.08.18-.1.64-.06,1.38.06.95.12,1.89.17,2.84.4-.01.81-.02,1.21-.03.44-.04.88-.08,1.33-.12Z"/>
    <path class="cls-2" d="m56.82,66.84c.01.45.03.9.04,1.36.76-.57,1.51-.99,2.25-1.28.74-.29,1.47-.44,2.18-.46.95-.02,1.76.17,2.42.58.5.31.84.7,1.02,1.17.18.47.27,1.24.29,2.3.02,1.51.03,3.01.05,4.52.02.76.04,1.52.07,2.27-1.66.03-3.32.06-4.98.11-.01-.9-.03-1.81-.04-2.71,0-.66-.02-1.33-.03-1.99-.03-1-.06-2-.09-3-.03-.7-.04-1.11-.06-1.24-.01-.13-.05-.25-.1-.35-.11-.21-.35-.3-.7-.29-.33,0-.68.11-1.05.3-.37.19-.78.48-1.2.86,0,.13,0,.27,0,.4.02.91.05,1.83.07,2.74.02.7.03,1.4.05,2.1.04.96.08,1.91.12,2.87,0,.14.02.28.02.42-1.67.06-3.34.12-5.01.19-.05-1.27-.09-2.55-.14-3.82-.03-.84-.05-1.68-.08-2.53-.04-.73-.08-1.46-.13-2.18-.04-.7-.08-1.41-.12-2.11,1.71-.08,3.42-.14,5.13-.2Z"/>
    <path class="cls-2" d="m80.51,75.1c.62.44,1.3.82,2.02,1.14.72.32,1.5.57,2.33.77.2.04.3.14.3.3,0,.21-.16.32-.46.31-.68-.02-1.64-.34-2.87-.96-1.02-.52-2.19-1.32-3.52-2.38,0,.13,0,.27,0,.4,0,.55,0,1.11-.01,1.66,0,.32,0,.63-.01.95-1.99-.02-3.98-.04-5.97-.04,0-.15,0-.29,0-.44,0-1.06.01-2.12.02-3.18,0-1.27.02-2.54.03-3.81,0-1.96-.01-3.93-.02-5.89,1.35,0,2.7,0,4.05.02,1.81.01,3.18.08,4.11.2.92.11,1.71.31,2.36.59,1.05.45,1.87,1.18,2.46,2.18.54.93.8,1.89.77,2.89-.03,1.07-.37,2.06-1.03,2.99-1.05,1.49-2.56,2.26-4.54,2.32Zm-.93-.62c.16,0,.31.01.47.02,1.35.02,2.5-.33,3.45-1.05.6-.45,1.07-1.03,1.41-1.72.31-.64.48-1.29.5-1.96.03-1.14-.32-2.17-1.06-3.08-.56-.71-1.28-1.22-2.15-1.52-.87-.3-2.11-.48-3.7-.52-.06,2.18-.11,4.36-.17,6.54,0,.59-.01,1.18-.02,1.77,0,.15,0,.31,0,.46.4.39.82.75,1.27,1.08Z"/>
    <path class="cls-2" d="m91.57,72.61c-.04,1.01-.08,2.02-.12,3.02-.02.59,0,.96.06,1.12.13.3.44.47.95.49.76.03,1.52-.14,2.28-.52.76-.38,1.43-.91,2.02-1.61.19-.23.33-.38.41-.44.08-.06.17-.09.26-.08.11,0,.2.05.27.14.07.09.1.19.09.31-.01.27-.25.63-.72,1.07-.61.56-1.35,1-2.22,1.33-.87.33-1.71.48-2.52.44-1.39-.06-2.6-.57-3.63-1.54-.6-.57-1.06-1.26-1.37-2.07-.27-.71-.4-1.42-.38-2.12.02-.68.17-1.35.46-2.02.29-.67.67-1.25,1.15-1.72.56-.56,1.22-.99,1.97-1.28.74-.28,1.51-.41,2.3-.38,1.24.05,2.34.46,3.31,1.22,1.51,1.18,2.19,2.83,2.06,4.93-.77-.04-1.54-.08-2.31-.12-.99-.05-1.98-.09-2.97-.13-.45-.01-.9-.03-1.36-.04Zm2.56-.53c.04-.95.09-1.89.13-2.84.01-.61.02-.98.01-1.1,0-.12-.05-.23-.12-.34-.18-.26-.55-.41-1.12-.43-.59-.03-.96.11-1.12.39-.1.17-.17.63-.2,1.37-.04.95-.08,1.89-.12,2.84.4.03.81.06,1.21.09.44,0,.89.01,1.33.02Z"/>
    <path class="cls-2" d="m100.08,67.39c1.71.1,3.41.21,5.12.33-.04.42-.08.85-.12,1.27.71-.52,1.36-.87,1.93-1.06.58-.19,1.2-.26,1.88-.21,1.38.11,2.46.7,3.24,1.77.7.96.98,2.13.86,3.51-.13,1.47-.67,2.64-1.62,3.52-.88.81-1.92,1.16-3.12,1.07-.63-.05-1.25-.23-1.86-.54-.61-.31-1.21-.75-1.79-1.32,0,.12-.01.24-.02.36-.03.43-.05.85-.08,1.28-.02.35-.04.71-.05,1.06,0,.12-.01.24-.02.36-1.66-.11-3.33-.22-5-.32.06-.93.11-1.85.17-2.78.06-.86.11-1.72.17-2.58.09-1.8.19-3.59.28-5.39,0-.11.01-.23.02-.34Zm4.94,2.47c-.12,1.69-.23,3.39-.35,5.08.45.47.86.84,1.22,1.09.36.25.69.39.97.41.26.02.43-.1.49-.35.02-.08.06-.52.13-1.31.12-1.59.24-3.17.36-4.76.04-.56.06-.9.05-1.01-.03-.28-.16-.42-.39-.44-.3-.02-.67.08-1.12.31-.44.23-.9.56-1.35.98Z"/>
    <path class="cls-2" d="m120.05,68.71c1.07.11,2.06.5,2.96,1.18.83.63,1.42,1.42,1.78,2.39.32.85.43,1.73.33,2.64-.07.62-.26,1.23-.57,1.83-.31.6-.7,1.12-1.16,1.56-.65.6-1.4,1.03-2.26,1.28-.71.21-1.43.27-2.16.2-1.23-.12-2.3-.59-3.22-1.41-.72-.63-1.24-1.4-1.56-2.31-.27-.77-.37-1.56-.29-2.39.14-1.61.85-2.89,2.15-3.84,1.21-.88,2.56-1.26,4.02-1.13Zm-.35.59c-.34,3.27-.67,6.53-1.01,9.8.2.03.34.05.42.06.91.09,1.8-.07,2.68-.49.85-.41,1.52-1,2.01-1.77.39-.61.62-1.31.71-2.08.17-1.56-.27-2.89-1.35-3.99-.87-.89-1.87-1.39-3-1.5-.09,0-.25-.02-.46-.03Z"/>
    <path class="cls-2" d="m132.01,73.38c-.16,1.24-.33,2.48-.49,3.72-.15,1.29-.3,2.57-.45,3.86-1.67-.21-3.34-.42-5.01-.61.02-.18.05-.35.07-.53.08-.66.16-1.32.24-1.98.15-1.18.3-2.37.45-3.55.14-1.32.27-2.64.41-3.96.02-.19.04-.38.05-.56,1.71.2,3.41.41,5.12.62-.08.66-.17,1.33-.25,1.99.86-.69,1.45-1.12,1.78-1.29.75-.38,1.43-.53,2.04-.45.37.05.67.17.89.36.22.19.31.4.28.64-.03.19-.12.33-.28.43-.16.1-.35.14-.57.11-.14-.02-.29-.08-.45-.18-.27-.17-.5-.27-.7-.3-.48-.06-.96.03-1.44.29-.48.26-1.05.72-1.69,1.39Z"/>
    <path class="cls-2" d="m144.64,68.62c-.2,1.03-.39,2.07-.58,3.1-.02.1-.04.2-.06.3.58.09,1.1.15,1.58.17.08,0,.15.01.21.02.29.05.42.2.38.46-.04.24-.21.34-.51.29-.09-.01-.21-.04-.34-.07-.52-.12-.89-.2-1.11-.23-.1-.01-.19-.03-.29-.04-.1.62-.2,1.25-.29,1.87-.18,1.25-.36,2.5-.54,3.75-.09.67-.19,1.34-.28,2.01-.07.47-.09.8-.04,1,.04.2.15.31.33.34.24.04.51-.06.82-.29.3-.23.56-.53.77-.9.2-.35.39-.51.58-.48.22.03.31.17.27.42-.04.24-.2.53-.48.86-.28.33-.59.6-.95.82-.87.54-1.91.72-3.13.54-1.15-.17-1.98-.64-2.52-1.42-.28-.39-.44-.81-.51-1.26-.06-.45-.04-1.05.07-1.81.03-.24.07-.48.1-.72.1-.68.2-1.36.3-2.04.16-1.15.33-2.3.49-3.46-.09-.02-.16-.03-.2-.04-.07,0-.2-.02-.4-.04-.17-.01-.31-.02-.42-.04-.32-.05-.47-.19-.44-.43.03-.23.2-.33.52-.29.15.02.25.04.31.05.24.05.48.1.72.15.05-.36.1-.73.15-1.09,2.07-.41,3.9-.91,5.49-1.51Z"/>
  </g>
</svg>